<svg viewBox="0 0 680 520" xmlns="http://www.w3.org/2000/svg">
  <defs>
    <linearGradient id="rgbV1" x1="0%" y1="0%" x2="100%" y2="100%">
      <stop offset="0%" stop-color="#00f0ff"/>
      <stop offset="50%" stop-color="#a855f7"/>
      <stop offset="100%" stop-color="#ff00e6"/>
    </linearGradient>
    <linearGradient id="rgbV1Fill" x1="0%" y1="0%" x2="100%" y2="100%">
      <stop offset="0%" stop-color="#00f0ff" stop-opacity="0.16"/>
      <stop offset="50%" stop-color="#a855f7" stop-opacity="0.16"/>
      <stop offset="100%" stop-color="#ff00e6" stop-opacity="0.16"/>
    </linearGradient>
  </defs>
  <g transform="translate(340, 240)">
    <path d="M -60 -160 L 60 -160 L 160 -30 L 0 220 L -160 -30 Z" fill="url(#rgbV1Fill)" stroke="url(#rgbV1)" stroke-width="3" stroke-linejoin="round"/>
    <line x1="-160" y1="-30" x2="160" y2="-30" stroke="url(#rgbV1)" stroke-width="2.5"/>
    <line x1="-60" y1="-160" x2="-80" y2="-30" stroke="url(#rgbV1)" stroke-width="1.5" opacity="0.55"/>
    <line x1="60" y1="-160" x2="80" y2="-30" stroke="url(#rgbV1)" stroke-width="1.5" opacity="0.55"/>
    <line x1="0" y1="-160" x2="0" y2="-30" stroke="url(#rgbV1)" stroke-width="1.2" opacity="0.4"/>
    <line x1="-30" y1="-160" x2="-40" y2="-30" stroke="url(#rgbV1)" stroke-width="1" opacity="0.3"/>
    <line x1="30" y1="-160" x2="40" y2="-30" stroke="url(#rgbV1)" stroke-width="1" opacity="0.3"/>
    <line x1="-80" y1="-30" x2="0" y2="220" stroke="url(#rgbV1)" stroke-width="1.5" opacity="0.55"/>
    <line x1="-40" y1="-30" x2="0" y2="220" stroke="url(#rgbV1)" stroke-width="1.4" opacity="0.5"/>
    <line x1="0" y1="-30" x2="0" y2="220" stroke="url(#rgbV1)" stroke-width="1.4" opacity="0.5"/>
    <line x1="40" y1="-30" x2="0" y2="220" stroke="url(#rgbV1)" stroke-width="1.4" opacity="0.5"/>
    <line x1="80" y1="-30" x2="0" y2="220" stroke="url(#rgbV1)" stroke-width="1.5" opacity="0.55"/>
  </g>
  <text x="340" y="500" text-anchor="middle" font-family="-apple-system, BlinkMacSystemFont, 'SF Pro Display', sans-serif" font-size="11" font-weight="500" fill="#8e8e93" letter-spacing="13">DIAMOND EVENTS</text>
</svg>
