<svg viewBox="0 0 680 320" xmlns="http://www.w3.org/2000/svg">
  <defs>
    <linearGradient id="rgbC" x1="0%" y1="0%" x2="100%" y2="100%">
      <stop offset="0%" stop-color="#00f0ff"/>
      <stop offset="50%" stop-color="#a855f7"/>
      <stop offset="100%" stop-color="#ff00e6"/>
    </linearGradient>
    <linearGradient id="rgbCfill" x1="0%" y1="0%" x2="100%" y2="100%">
      <stop offset="0%" stop-color="#00f0ff" stop-opacity="0.15"/>
      <stop offset="50%" stop-color="#a855f7" stop-opacity="0.15"/>
      <stop offset="100%" stop-color="#ff00e6" stop-opacity="0.15"/>
    </linearGradient>
  </defs>
  <g transform="translate(340, 130)">
    <circle cx="0" cy="0" r="78" fill="url(#rgbCfill)" stroke="url(#rgbC)" stroke-width="2"/>
    <g transform="translate(-22, 0)">
      <path d="M -20 -28 L 6 -28 Q 24 -28 24 0 Q 24 28 6 28 L -20 28 Z M -8 -16 L -8 16 L 4 16 Q 12 16 12 0 Q 12 -16 4 -16 Z" fill="#f5f5f7"/>
    </g>
    <g transform="translate(28, 0)">
      <path d="M -16 -28 L 18 -28 L 18 -19 L -6 -19 L -6 -4 L 14 -4 L 14 4 L -6 4 L -6 19 L 18 19 L 18 28 L -16 28 Z" fill="url(#rgbC)"/>
    </g>
    <g transform="translate(0, -54)">
      <path d="M -8 0 L -4 -6 L 4 -6 L 8 0 L 0 8 Z" fill="url(#rgbC)"/>
    </g>
  </g>
  <text x="340" y="240" text-anchor="middle" font-family="-apple-system, BlinkMacSystemFont, 'SF Pro Display', sans-serif" font-size="38" font-weight="700" fill="#f5f5f7" letter-spacing="-1">Diamond<tspan fill="url(#rgbC)">.</tspan>Events</text>
  <text x="340" y="272" text-anchor="middle" font-family="-apple-system, BlinkMacSystemFont, 'SF Pro Display', sans-serif" font-size="11" font-weight="500" fill="#8e8e93" letter-spacing="8">PREMIUM EVENT BRAND</text>
</svg>
